<svg xmlns="http://www.w3.org/2000/svg" xmlns:xlink="http://www.w3.org/1999/xlink" width="1080" zoomAndPan="magnify" viewBox="0 0 810 809.999993" height="1080" preserveAspectRatio="xMidYMid meet" version="1.0"><defs><g/><clipPath id="49ea362caa"><path d="M 120.335938 149.902344 L 630.53125 149.902344 L 630.53125 660.097656 L 120.335938 660.097656 Z M 120.335938 149.902344 " clip-rule="nonzero"/></clipPath><clipPath id="d6e1ce0470"><path d="M 375.433594 149.902344 C 234.546875 149.902344 120.335938 264.113281 120.335938 405 C 120.335938 545.886719 234.546875 660.097656 375.433594 660.097656 C 516.320312 660.097656 630.53125 545.886719 630.53125 405 C 630.53125 264.113281 516.320312 149.902344 375.433594 149.902344 Z M 375.433594 149.902344 " clip-rule="nonzero"/></clipPath><clipPath id="a3536f4072"><path d="M 183.484375 430.160156 L 285.589844 430.160156 L 285.589844 532.261719 L 183.484375 532.261719 Z M 183.484375 430.160156 " clip-rule="nonzero"/></clipPath><clipPath id="02b89f631c"><path d="M 305.066406 564.5625 L 372.816406 564.5625 L 372.816406 632.316406 L 305.066406 632.316406 Z M 305.066406 564.5625 " clip-rule="nonzero"/></clipPath><clipPath id="bec2f41e9a"><path d="M 442.761719 539.445312 L 485.703125 539.445312 L 485.703125 582.386719 L 442.761719 582.386719 Z M 442.761719 539.445312 " clip-rule="nonzero"/></clipPath><clipPath id="c6241c652d"><path d="M 579.675781 361.777344 L 622.617188 361.777344 L 622.617188 404.71875 L 579.675781 404.71875 Z M 579.675781 361.777344 " clip-rule="nonzero"/></clipPath><clipPath id="c4c13f9011"><path d="M 280.792969 228.132812 L 323.730469 228.132812 L 323.730469 271.074219 L 280.792969 271.074219 Z M 280.792969 228.132812 " clip-rule="nonzero"/></clipPath><clipPath id="299ddbfbdf"><path d="M 353.820312 169.648438 L 412.03125 169.648438 L 412.03125 227.855469 L 353.820312 227.855469 Z M 353.820312 169.648438 " clip-rule="nonzero"/></clipPath></defs><g clip-path="url(#49ea362caa)"><g clip-path="url(#d6e1ce0470)"><path fill="#5b4f47" d="M 120.335938 149.902344 L 630.53125 149.902344 L 630.53125 660.097656 L 120.335938 660.097656 Z M 120.335938 149.902344 " fill-opacity="1" fill-rule="nonzero"/></g></g><path stroke-linecap="butt" transform="matrix(3.226575, -0.292617, 0.292617, 3.226575, 207.151678, 386.016593)" fill="none" stroke-linejoin="miter" d="M 25.967983 49.239535 C 23.902584 49.239875 22.183343 48.800666 20.812442 47.924526 C 19.449294 47.056354 18.430159 45.932456 17.752636 44.552614 C 17.075984 43.163167 16.737718 41.740243 16.736855 40.281333 C 16.737083 38.823732 17.031728 37.430362 17.62188 36.102532 C 18.20439 34.765535 19.029178 33.680533 20.096244 32.847526 C 21.164182 32.004914 22.409377 31.583944 23.833029 31.584726 C 24.362123 31.584283 24.627317 31.797195 24.627518 32.222151 C 24.627011 33.402487 25.143323 34.357298 26.176453 35.086584 C 27.209584 35.815869 28.490099 36.180181 30.017889 36.180722 C 31.510639 36.180506 32.912926 35.816156 34.223658 35.086361 C 35.542796 34.357328 36.735479 33.407385 37.803018 32.23544 C 38.871319 31.055089 39.795286 29.757532 40.57743 28.341788 C 41.357826 26.918621 41.952979 25.495603 42.360596 24.071317 C 42.768105 22.648231 42.972608 21.367751 42.972798 20.230968 C 42.971935 18.772058 42.660264 17.669947 42.035494 16.923217 C 41.419128 16.177249 40.542609 15.80357 39.404517 15.804472 C 38.371873 15.804042 37.455773 16.133792 36.657418 16.793832 C 35.858733 17.444157 35.460506 18.377772 35.460443 19.593258 C 35.459333 20.513251 35.716573 21.294446 36.228559 21.936517 C 36.748951 22.579351 37.400264 22.899918 38.181078 22.900513 C 38.502816 23.611286 38.446241 24.475402 38.011572 25.490457 C 37.586071 26.497869 36.848458 27.382545 35.798514 28.146887 C 34.757084 28.91079 33.433068 29.293135 31.827776 29.292829 C 29.735743 29.293175 27.995145 28.528786 26.605872 27.000862 C 25.217801 25.473046 24.52332 23.412493 24.522646 20.8168 C 24.523337 18.473046 25.134912 16.268228 26.358572 14.202454 C 27.591947 12.136351 29.396421 10.47434 31.775705 9.215546 C 34.162194 7.957405 37.078786 7.328451 40.524391 7.327374 C 43.302816 7.327534 45.694087 7.97902 47.698312 9.280633 C 49.703299 10.573841 51.249235 12.697084 52.333935 15.647745 C 53.418635 18.598405 53.960821 22.578553 53.961802 27.587097 C 53.961043 28.116082 54.087633 28.455649 54.339385 28.603177 C 54.5907 28.742191 54.855841 28.715389 55.133391 28.525065 C 55.419126 28.324586 55.580614 28.012356 55.61436 27.586847 C 55.901554 25.060844 56.417668 22.600396 57.164013 20.204411 C 57.91112 17.800021 58.922223 15.621751 60.197431 13.6684 C 61.482245 11.71592 63.057835 10.16148 64.923986 9.007481 C 66.790898 7.845077 68.969586 7.263003 71.45994 7.262462 C 73.231046 7.263277 74.667965 7.531605 75.770479 8.069846 C 76.872555 8.599574 77.680046 9.293868 78.191643 10.153821 C 78.712626 11.003729 78.972508 11.88928 78.972599 12.809381 C 78.972738 14.449823 78.50877 15.761252 77.579712 16.741156 C 76.659822 17.713418 75.240423 18.199702 73.322718 18.20012 C 72.757383 18.199697 72.349982 18.113113 72.098224 17.93895 C 71.845918 17.757474 71.612715 17.57894 71.394796 17.405425 C 71.187354 17.223174 70.85298 17.132317 70.392984 17.131763 C 68.430523 17.131753 66.65964 18.156378 65.080445 20.204436 C 63.500703 22.24518 62.094037 25.060698 60.862523 28.654809 C 59.638322 32.248373 58.583331 36.405706 57.698642 41.128119 C 57.307865 43.194366 56.612848 44.690651 55.614572 45.619484 C 54.617059 46.539912 53.496641 47.000043 52.255721 47.000094 C 50.371964 46.999958 49.056969 46.201528 48.310738 44.604803 C 47.564178 42.998362 47.191021 40.758718 47.19127 37.88587 C 47.190446 36.106142 47.24286 34.17991 47.347528 32.104664 C 47.460164 30.021667 47.620395 27.947829 47.82833 25.881949 C 47.89863 25.387115 47.806645 25.053109 47.556087 24.879055 C 47.312296 24.69714 47.056422 24.675145 46.787157 24.814163 C 46.526406 24.952743 46.340247 25.256682 46.227479 25.725872 C 45.090842 31.410904 43.497241 35.980648 41.449077 39.435322 C 39.408989 42.881044 37.065233 45.376711 34.417807 46.922324 C 31.770491 48.466737 28.954683 49.239213 25.967983 49.239535 Z M 68.466276 47.000497 C 66.651507 47.000564 65.280962 46.253996 64.352239 44.760575 C 63.431922 43.267917 62.971941 41.331535 62.972079 38.953833 C 62.971425 37.452569 63.158286 35.859352 63.531352 34.175274 C 63.905181 32.482791 64.455418 30.820834 65.184573 29.18842 C 65.913619 27.557207 66.830341 26.072554 67.932229 24.735444 C 69.034008 23.399534 70.314866 22.33168 71.773493 21.532973 C 73.23092 20.734158 74.884593 20.334494 76.733201 20.335074 C 77.800995 20.33506 78.626041 20.435307 79.207247 20.634505 C 79.79773 20.824859 80.24457 21.063929 80.549077 21.350624 C 80.852383 21.63721 81.10885 21.879596 81.31706 22.080076 C 81.533455 22.270402 81.820127 22.366618 82.176095 22.366213 C 82.775378 22.366083 83.260444 22.196999 83.633803 21.857979 C 84.007054 21.52016 84.423967 21.181458 84.884436 20.843074 C 85.353419 20.504251 85.994691 20.334806 86.810655 20.334956 C 87.522481 20.335347 88.013626 20.51306 88.282781 20.869187 C 88.551935 21.225315 88.686306 21.706022 88.685674 22.31371 C 88.685452 23.304001 88.408512 24.288567 87.852233 25.269591 C 87.305668 26.250286 86.729039 27.522441 86.121254 29.084749 C 85.235963 31.037142 84.905645 32.530182 85.13161 33.562777 C 85.365981 34.596135 86.068532 35.112632 87.240464 35.112377 C 88.160565 35.112286 88.959448 34.873599 89.637113 34.396318 C 90.313138 33.910413 90.921009 33.241572 91.459305 32.392089 C 91.737677 31.965762 92.097651 31.814389 92.539444 31.935569 C 92.990843 32.05762 93.365092 32.29616 93.659681 32.652173 C 93.963984 33.007856 94.028575 33.363591 93.854653 33.719487 C 93.213067 34.960329 92.527303 36.34123 91.797578 37.859792 C 91.068615 39.369947 90.256787 40.819319 89.363186 42.209217 C 88.47777 43.588962 87.467097 44.734588 86.329967 45.645986 C 85.192399 46.548869 83.877895 46.999873 82.383944 46.99998 C 80.535336 46.999399 79.228867 46.2538 78.464757 44.76078 C 77.701847 43.267868 77.479743 41.418435 77.800736 39.213898 L 77.592461 39.21438 C 76.525248 41.38393 75.205807 43.224311 73.635446 44.734431 C 72.07229 46.245205 70.350033 47.000633 68.466276 47.000497 Z M 73.804152 35.959209 C 74.724254 35.959118 75.531536 35.694559 76.226109 35.164331 C 76.920135 34.62679 77.462295 33.974993 77.853573 33.211449 C 78.243651 32.447797 78.439209 31.693138 78.439155 30.946163 C 78.439508 30.06121 78.18731 29.371271 77.683761 28.876453 C 77.189488 28.372792 76.51625 28.120454 75.666337 28.120857 C 74.746236 28.120948 73.947356 28.372951 73.269806 28.875667 C 72.592909 29.371178 72.068537 30.000376 71.695379 30.764352 C 71.322221 31.528328 71.134745 32.300669 71.135352 33.081593 C 71.134998 33.966545 71.373882 34.669805 71.850802 35.191263 C 72.337108 35.702677 72.988188 35.959059 73.804152 35.959209 Z M 95.616313 47.000266 C 93.620012 46.999609 92.148852 46.387984 91.202941 45.164189 C 90.265105 43.931442 89.796574 42.329635 89.796036 40.35986 C 89.796808 38.388993 90.18659 36.266966 90.967892 33.992795 C 91.436872 32.639448 91.952986 31.180207 92.517108 29.618782 C 93.090615 28.047313 93.710594 26.337202 94.379446 24.488666 C 93.598631 24.488072 93.003342 24.283965 92.595981 23.876563 C 92.18742 23.469052 91.918457 22.990666 91.788875 22.443808 C 91.66726 21.889197 91.666173 21.40726 91.787906 20.999416 C 91.918153 20.591132 92.143631 20.387611 92.465759 20.386558 C 94.027498 20.386546 95.252059 19.952809 96.137041 19.08513 C 97.031299 18.208606 97.65549 17.293063 98.012123 16.337516 C 98.653747 14.775856 99.274648 13.789797 99.873296 13.382831 C 100.481331 12.96582 101.123686 12.757732 101.800472 12.757367 C 102.799278 12.75715 103.41972 13.177823 103.662891 14.020696 C 103.914247 14.853415 103.632562 16.103894 102.816851 17.76962 C 102.425375 18.628787 102.208946 19.279858 102.16516 19.722617 C 102.130981 20.166247 102.365175 20.387243 102.868834 20.386915 L 105.641256 20.38653 C 105.997114 20.387326 106.227385 20.638232 106.331742 21.142852 C 106.435878 21.636555 106.426614 22.205931 106.305478 22.847485 C 106.183795 23.481726 105.954248 24.050494 105.615637 24.553682 C 105.276587 25.048355 104.838913 25.295587 104.300213 25.295158 C 102.668177 25.296059 101.462529 25.361052 100.68076 25.491122 C 99.899754 25.612786 99.348786 25.921171 99.027966 26.415076 C 98.705836 26.910073 98.367957 27.765626 98.012035 28.980316 C 97.438807 30.829049 97.516849 32.304644 98.246162 33.407101 C 98.975037 34.501044 100.125255 35.047243 101.6966 35.048102 C 102.764394 35.048088 103.71468 34.808605 104.548442 34.332163 C 105.381113 33.854411 106.062015 33.207932 106.59246 32.391634 C 106.878036 31.965961 107.242922 31.813823 107.685807 31.936312 C 108.137315 32.057162 108.510363 32.295594 108.804952 32.651606 C 109.109255 33.00729 109.173737 33.364226 109.001125 33.71903 C 108.679674 34.326679 108.250206 35.164241 107.711412 36.232807 C 107.182002 37.291328 106.544655 38.445387 105.798061 39.696075 C 105.051138 40.937049 104.178557 42.108515 103.18021 43.211675 C 102.191687 44.313305 101.063398 45.220662 99.795453 45.932546 C 98.537222 46.6441 97.144212 46.999606 95.616313 47.000266 Z M 131.983399 32.391677 C 132.191713 32.070377 132.526806 31.953067 132.986275 32.03953 C 133.455351 32.126864 133.858954 32.322062 134.196977 32.626324 C 134.536309 32.929494 134.596426 33.294509 134.379947 33.719185 C 133.884815 34.786868 133.238834 35.889296 132.4396 37.026252 C 131.641568 38.163317 130.642532 39.113873 129.444897 39.878138 C 128.255775 40.641964 126.788979 41.023467 125.044399 41.023846 L 124.406365 41.024094 C 123.095432 42.837402 121.524512 44.286939 119.693605 45.372706 C 117.861606 46.457163 115.947948 47.000318 113.951648 46.999661 C 111.572745 46.999414 109.602796 46.200908 108.040601 44.604033 C 106.477967 42.998643 105.696895 40.811594 105.696184 38.042775 C 105.69695 36.045273 106.060662 34.010469 106.789939 31.93618 C 107.518886 29.852175 108.539105 27.93381 109.849397 26.180977 C 111.168965 24.4193 112.713803 23.003716 114.484894 21.936738 C 116.2645 20.869321 118.222152 20.334999 120.356538 20.334862 C 121.81534 20.335199 123.130006 20.62997 124.30163 21.220484 C 125.474124 21.801391 126.40688 22.769757 127.101317 24.123287 C 127.796407 25.469612 128.14316 27.266186 128.142667 29.514316 C 128.142531 31.398074 127.878763 33.225235 127.348963 34.995583 L 127.713336 34.99594 C 128.49426 34.995334 129.241518 34.791917 129.952928 34.383071 C 130.664229 33.975425 131.341853 33.3117 131.983399 32.391677 Z M 116.99773 35.958762 C 117.882682 35.959115 118.664531 35.694671 119.342075 35.165321 C 120.018089 34.626146 120.552827 33.976097 120.943013 33.211244 C 121.333091 32.447591 121.528649 31.692932 121.528595 30.945957 C 121.529189 30.165142 121.298829 29.501396 120.838713 28.954828 C 120.378269 28.398544 119.632216 28.121443 118.599571 28.121013 C 117.748458 28.121307 116.993241 28.372428 116.333812 28.875576 C 115.673835 29.371411 115.157977 30.00017 114.784819 30.764146 C 114.411662 31.528122 114.224185 32.300463 114.224792 33.081387 C 114.224197 33.862202 114.437533 34.540142 114.862613 35.112589 C 115.288456 35.67663 116.000126 35.959088 116.99773 35.958762 Z M 140.350369 34.579041 C 139.317725 34.578611 138.802101 33.776404 138.801315 32.169802 C 138.801818 30.468885 138.961528 28.50759 139.282954 26.284933 C 139.604272 24.063476 140.056356 21.815138 140.637897 19.541011 C 141.227514 17.25793 141.912792 15.148174 142.694823 13.21305 C 143.484168 11.27738 144.33898 9.714473 145.25915 8.525531 C 146.187835 7.33615 147.147322 6.74157 148.136413 6.741682 C 150.238052 6.742208 151.288304 7.896773 151.287169 10.205377 C 151.288257 11.194576 151.084192 12.483571 150.676174 14.072469 C 150.267826 15.651653 149.717162 17.358365 149.022108 19.188786 C 148.328146 21.020517 147.581677 22.843853 146.782809 24.657595 C 145.983941 26.471338 145.164407 28.125821 144.322024 29.618427 C 143.489356 31.110703 142.725286 32.313802 142.030032 33.225322 C 141.33565 34.127236 140.776526 34.578949 140.350369 34.579041 Z M 136.939457 47.533578 C 135.733577 47.534386 134.682934 47.091647 133.788729 46.20547 C 132.903691 45.31165 132.461369 44.261855 132.46067 43.054774 C 132.460618 41.813854 132.903683 40.759609 133.788774 39.890729 C 134.683033 39.014205 135.733702 38.575594 136.939473 38.575987 C 138.180393 38.575935 139.235074 39.014197 140.103516 39.890774 C 140.979924 40.759598 141.418209 41.81387 141.418261 43.05479 C 141.41896 44.261871 140.979932 45.31164 140.10347 46.205515 C 139.234976 47.091639 138.180377 47.533526 136.939457 47.533578 Z M 136.939457 47.533578 " stroke="#5b4f47" stroke-width="3.999998" stroke-opacity="1" stroke-miterlimit="4"/><g fill="#f6f1e3" fill-opacity="1"><g transform="translate(283.520408, 531.987016)"><g><path d="M 21.8125 5.296875 C 15.164062 5.898438 9.503906 5 4.828125 2.59375 C 0.160156 0.1875 -3.460938 -3.148438 -6.046875 -7.421875 C -8.640625 -11.703125 -10.148438 -16.191406 -10.578125 -20.890625 C -11.003906 -25.597656 -10.460938 -30.1875 -8.953125 -34.65625 C -7.453125 -39.132812 -5.101562 -42.878906 -1.90625 -45.890625 C 1.28125 -48.898438 5.171875 -50.613281 9.765625 -51.03125 C 11.492188 -51.1875 12.421875 -50.570312 12.546875 -49.1875 C 12.890625 -45.40625 14.828125 -42.488281 18.359375 -40.4375 C 21.898438 -38.394531 26.140625 -37.597656 31.078125 -38.046875 C 35.890625 -38.484375 40.3125 -40.066406 44.34375 -42.796875 C 48.375 -45.535156 51.9375 -48.953125 55.03125 -53.046875 C 58.132812 -57.148438 60.738281 -61.609375 62.84375 -66.421875 C 64.945312 -71.234375 66.453125 -75.992188 67.359375 -80.703125 C 68.273438 -85.410156 68.566406 -89.597656 68.234375 -93.265625 C 67.804688 -97.960938 66.476562 -101.429688 64.25 -103.671875 C 62.03125 -105.910156 59.082031 -106.863281 55.40625 -106.53125 C 52.070312 -106.226562 49.207031 -104.894531 46.8125 -102.53125 C 44.425781 -100.175781 43.410156 -97.050781 43.765625 -93.15625 C 44.035156 -90.164062 45.097656 -87.710938 46.953125 -85.796875 C 48.804688 -83.890625 50.992188 -83.050781 53.515625 -83.28125 C 54.765625 -81.070312 54.847656 -78.269531 53.765625 -74.875 C 52.679688 -71.488281 50.554688 -68.40625 47.390625 -65.625 C 44.222656 -62.851562 40.0625 -61.234375 34.90625 -60.765625 C 28.132812 -60.148438 22.289062 -62.101562 17.375 -66.625 C 12.46875 -71.15625 9.632812 -77.609375 8.875 -85.984375 C 8.1875 -93.554688 9.519531 -100.847656 12.875 -107.859375 C 16.226562 -114.878906 21.554688 -120.769531 28.859375 -125.53125 C 36.171875 -130.300781 45.394531 -133.1875 56.53125 -134.1875 C 65.476562 -135 73.378906 -133.609375 80.234375 -130.015625 C 87.097656 -126.421875 92.710938 -120.019531 97.078125 -110.8125 C 101.453125 -101.601562 104.367188 -88.914062 105.828125 -72.75 C 105.984375 -71.019531 106.476562 -69.960938 107.3125 -69.578125 C 108.15625 -69.203125 109.003906 -69.367188 109.859375 -70.078125 C 110.722656 -70.785156 111.148438 -71.835938 111.140625 -73.234375 C 111.335938 -81.453125 112.285156 -89.539062 113.984375 -97.5 C 115.691406 -105.46875 118.320312 -112.789062 121.875 -119.46875 C 125.4375 -126.15625 130.0625 -131.632812 135.75 -135.90625 C 141.4375 -140.1875 148.296875 -142.691406 156.328125 -143.421875 C 162.066406 -143.941406 166.789062 -143.503906 170.5 -142.109375 C 174.207031 -140.710938 177.015625 -138.710938 178.921875 -136.109375 C 180.835938 -133.515625 181.929688 -130.722656 182.203125 -127.734375 C 182.679688 -122.460938 181.570312 -118.113281 178.875 -114.6875 C 176.1875 -111.257812 171.742188 -109.265625 165.546875 -108.703125 C 163.710938 -108.535156 162.367188 -108.703125 161.515625 -109.203125 C 160.660156 -109.703125 159.859375 -110.207031 159.109375 -110.71875 C 158.367188 -111.226562 157.253906 -111.414062 155.765625 -111.28125 C 149.453125 -110.707031 144.039062 -106.890625 139.53125 -99.828125 C 135.03125 -92.773438 131.320312 -83.273438 128.40625 -71.328125 C 125.5 -59.378906 123.3125 -45.644531 121.84375 -30.125 C 121.175781 -23.363281 119.375 -18.34375 116.4375 -15.0625 C 113.5 -11.789062 110.019531 -9.972656 106 -9.609375 C 99.925781 -9.054688 95.445312 -11.25 92.5625 -16.1875 C 89.675781 -21.132812 87.8125 -28.253906 86.96875 -37.546875 C 86.445312 -43.285156 86.054688 -49.523438 85.796875 -56.265625 C 85.535156 -63.015625 85.453125 -69.742188 85.546875 -76.453125 C 85.628906 -78.078125 85.238281 -79.140625 84.375 -79.640625 C 83.519531 -80.140625 82.679688 -80.117188 81.859375 -79.578125 C 81.046875 -79.046875 80.535156 -78.019531 80.328125 -76.5 C 78.316406 -57.8125 74.519531 -42.609375 68.9375 -30.890625 C 63.351562 -19.171875 56.515625 -10.425781 48.421875 -4.65625 C 40.328125 1.101562 31.457031 4.421875 21.8125 5.296875 Z M 21.8125 5.296875 "/></g></g></g><g fill="#f6f1e3" fill-opacity="1"><g transform="translate(423.582889, 519.284788)"><g><path d="M 18.234375 -1.65625 C 12.390625 -1.125 7.753906 -3.128906 4.328125 -7.671875 C 0.910156 -12.222656 -1.144531 -18.34375 -1.84375 -26.03125 C -2.28125 -30.84375 -2.144531 -36.03125 -1.4375 -41.59375 C -0.726562 -47.15625 0.5625 -52.679688 2.4375 -58.171875 C 4.3125 -63.660156 6.832031 -68.710938 10 -73.328125 C 13.164062 -77.953125 16.984375 -81.769531 21.453125 -84.78125 C 25.929688 -87.789062 31.148438 -89.566406 37.109375 -90.109375 C 40.554688 -90.421875 43.253906 -90.347656 45.203125 -89.890625 C 47.148438 -89.429688 48.65625 -88.785156 49.71875 -87.953125 C 50.78125 -87.128906 51.679688 -86.429688 52.421875 -85.859375 C 53.160156 -85.296875 54.109375 -85.066406 55.265625 -85.171875 C 57.210938 -85.347656 58.738281 -86.03125 59.84375 -87.21875 C 60.945312 -88.414062 62.195312 -89.625 63.59375 -90.84375 C 64.988281 -92.070312 67.003906 -92.804688 69.640625 -93.046875 C 71.929688 -93.253906 73.554688 -92.820312 74.515625 -91.75 C 75.484375 -90.6875 76.054688 -89.179688 76.234375 -87.234375 C 76.523438 -84.015625 75.921875 -80.75 74.421875 -77.4375 C 72.921875 -74.125 71.425781 -69.851562 69.9375 -64.625 C 67.644531 -58.050781 67.023438 -53.132812 68.078125 -49.875 C 69.128906 -46.625 71.546875 -45.171875 75.328125 -45.515625 C 78.304688 -45.785156 80.8125 -46.789062 82.84375 -48.53125 C 84.882812 -50.28125 86.644531 -52.613281 88.125 -55.53125 C 88.914062 -56.988281 90.046875 -57.578125 91.515625 -57.296875 C 92.984375 -57.023438 94.253906 -56.359375 95.328125 -55.296875 C 96.410156 -54.242188 96.722656 -53.117188 96.265625 -51.921875 C 94.554688 -47.710938 92.742188 -43.0625 90.828125 -37.96875 C 88.921875 -32.882812 86.738281 -27.976562 84.28125 -23.25 C 81.820312 -18.519531 78.890625 -14.523438 75.484375 -11.265625 C 72.085938 -8.015625 67.972656 -6.171875 63.140625 -5.734375 C 57.179688 -5.191406 52.75 -7.21875 49.84375 -11.8125 C 46.945312 -16.40625 45.6875 -22.300781 46.0625 -29.5 L 45.375 -29.4375 C 42.570312 -22.132812 38.867188 -15.816406 34.265625 -10.484375 C 29.660156 -5.148438 24.316406 -2.207031 18.234375 -1.65625 Z M 32.21875 -38.84375 C 35.195312 -39.113281 37.726562 -40.207031 39.8125 -42.125 C 41.894531 -44.050781 43.453125 -46.300781 44.484375 -48.875 C 45.523438 -51.457031 45.9375 -53.953125 45.71875 -56.359375 C 45.457031 -59.234375 44.445312 -61.398438 42.6875 -62.859375 C 40.9375 -64.328125 38.6875 -64.9375 35.9375 -64.6875 C 32.945312 -64.414062 30.4375 -63.375 28.40625 -61.5625 C 26.375 -59.757812 24.867188 -57.566406 23.890625 -54.984375 C 22.910156 -52.410156 22.535156 -49.863281 22.765625 -47.34375 C 23.023438 -44.476562 24.003906 -42.285156 25.703125 -40.765625 C 27.410156 -39.242188 29.582031 -38.601562 32.21875 -38.84375 Z M 32.21875 -38.84375 "/></g></g></g><g fill="#f6f1e3" fill-opacity="1"><g transform="translate(512.025291, 511.263971)"><g><path d="M 17.375 -1.578125 C 10.957031 -0.992188 6.046875 -2.539062 2.640625 -6.21875 C -0.753906 -9.90625 -2.738281 -14.929688 -3.3125 -21.296875 C -3.894531 -27.660156 -3.257812 -34.628906 -1.40625 -42.203125 C -0.300781 -46.691406 0.9375 -51.539062 2.3125 -56.75 C 3.6875 -61.96875 5.195312 -67.660156 6.84375 -73.828125 C 4.3125 -73.597656 2.328125 -74.082031 0.890625 -75.28125 C -0.535156 -76.488281 -1.53125 -77.960938 -2.09375 -79.703125 C -2.65625 -81.441406 -2.796875 -82.988281 -2.515625 -84.34375 C -2.234375 -85.695312 -1.582031 -86.421875 -0.5625 -86.515625 C 4.488281 -86.972656 8.320312 -88.738281 10.9375 -91.8125 C 13.550781 -94.882812 15.285156 -98.019531 16.140625 -101.21875 C 17.765625 -106.457031 19.488281 -109.820312 21.3125 -111.3125 C 23.132812 -112.8125 25.140625 -113.660156 27.328125 -113.859375 C 30.535156 -114.148438 32.660156 -112.984375 33.703125 -110.359375 C 34.753906 -107.742188 34.207031 -103.617188 32.0625 -97.984375 C 31.050781 -95.109375 30.550781 -92.945312 30.5625 -91.5 C 30.582031 -90.0625 31.394531 -89.414062 33 -89.5625 L 41.953125 -90.375 C 43.085938 -90.476562 43.898438 -89.742188 44.390625 -88.171875 C 44.890625 -86.597656 45.03125 -84.757812 44.8125 -82.65625 C 44.601562 -80.550781 44.019531 -78.648438 43.0625 -76.953125 C 42.113281 -75.253906 40.78125 -74.328125 39.0625 -74.171875 C 33.789062 -73.691406 29.910156 -73.132812 27.421875 -72.5 C 24.941406 -71.863281 23.253906 -70.695312 22.359375 -69 C 21.472656 -67.300781 20.628906 -64.453125 19.828125 -60.453125 C 18.546875 -54.316406 19.238281 -49.578125 21.90625 -46.234375 C 24.582031 -42.890625 28.441406 -41.445312 33.484375 -41.90625 C 36.929688 -42.21875 39.929688 -43.269531 42.484375 -45.0625 C 45.046875 -46.863281 47.066406 -49.160156 48.546875 -51.953125 C 49.335938 -53.410156 50.46875 -54 51.9375 -53.71875 C 53.414062 -53.445312 54.691406 -52.78125 55.765625 -51.71875 C 56.847656 -50.664062 57.148438 -49.539062 56.671875 -48.34375 C 55.816406 -46.300781 54.6875 -43.476562 53.28125 -39.875 C 51.875 -36.28125 50.148438 -32.363281 48.109375 -28.125 C 46.066406 -23.894531 43.597656 -19.851562 40.703125 -16 C 37.804688 -12.15625 34.425781 -8.898438 30.5625 -6.234375 C 26.695312 -3.578125 22.300781 -2.023438 17.375 -1.578125 Z M 17.375 -1.578125 "/></g></g></g><g fill="#f6f1e3" fill-opacity="1"><g transform="translate(560.892276, 506.832238)"><g><path d="M 81.578125 -54.9375 C 82.171875 -56.019531 83.226562 -56.484375 84.75 -56.328125 C 86.269531 -56.179688 87.617188 -55.671875 88.796875 -54.796875 C 89.972656 -53.921875 90.28125 -52.765625 89.71875 -51.328125 C 88.425781 -47.742188 86.65625 -44 84.40625 -40.09375 C 82.15625 -36.1875 79.21875 -32.820312 75.59375 -30 C 71.976562 -27.1875 67.359375 -25.523438 61.734375 -25.015625 L 59.6875 -24.84375 C 55.976562 -18.613281 51.328125 -13.476562 45.734375 -9.4375 C 40.140625 -5.40625 34.128906 -3.097656 27.703125 -2.515625 C 20.015625 -1.816406 13.410156 -3.816406 7.890625 -8.515625 C 2.378906 -13.222656 -0.78125 -20.050781 -1.59375 -29 C -2.175781 -35.425781 -1.597656 -42.101562 0.140625 -49.03125 C 1.890625 -55.957031 4.628906 -62.453125 8.359375 -68.515625 C 12.097656 -74.578125 16.675781 -79.585938 22.09375 -83.546875 C 27.519531 -87.503906 33.671875 -89.796875 40.546875 -90.421875 C 45.253906 -90.847656 49.585938 -90.285156 53.546875 -88.734375 C 57.503906 -87.191406 60.796875 -84.335938 63.421875 -80.171875 C 66.054688 -76.015625 67.703125 -70.320312 68.359375 -63.09375 C 68.910156 -57.019531 68.582031 -51.035156 67.375 -45.140625 L 68.578125 -45.25 C 71.109375 -45.476562 73.457031 -46.351562 75.625 -47.875 C 77.800781 -49.40625 79.785156 -51.757812 81.578125 -54.9375 Z M 34.28125 -39.03125 C 37.144531 -39.289062 39.585938 -40.378906 41.609375 -42.296875 C 43.628906 -44.210938 45.160156 -46.457031 46.203125 -49.03125 C 47.242188 -51.613281 47.65625 -54.109375 47.4375 -56.515625 C 47.207031 -59.046875 46.265625 -61.132812 44.609375 -62.78125 C 42.953125 -64.425781 40.460938 -65.097656 37.140625 -64.796875 C 34.390625 -64.546875 32.023438 -63.519531 30.046875 -61.71875 C 28.078125 -59.914062 26.597656 -57.722656 25.609375 -55.140625 C 24.628906 -52.566406 24.253906 -50.019531 24.484375 -47.5 C 24.710938 -44.976562 25.597656 -42.863281 27.140625 -41.15625 C 28.679688 -39.445312 31.0625 -38.738281 34.28125 -39.03125 Z M 34.28125 -39.03125 "/></g></g></g><g fill="#f6f1e3" fill-opacity="1"><g transform="translate(642.796107, 499.404402)"><g><path d="M 27.328125 -42.90625 C 24.003906 -42.601562 22.109375 -45.03125 21.640625 -50.1875 C 21.140625 -55.695312 21.082031 -62.082031 21.46875 -69.34375 C 21.851562 -76.613281 22.660156 -84.003906 23.890625 -91.515625 C 25.117188 -99.035156 26.707031 -106.035156 28.65625 -112.515625 C 30.613281 -118.992188 32.910156 -124.289062 35.546875 -128.40625 C 38.179688 -132.519531 41.101562 -134.722656 44.3125 -135.015625 C 51.082031 -135.617188 54.804688 -132.191406 55.484375 -124.734375 C 55.773438 -121.515625 55.492188 -117.296875 54.640625 -112.078125 C 53.785156 -106.859375 52.503906 -101.191406 50.796875 -95.078125 C 49.097656 -88.972656 47.222656 -82.875 45.171875 -76.78125 C 43.117188 -70.695312 40.960938 -65.125 38.703125 -60.0625 C 36.441406 -55 34.320312 -50.90625 32.34375 -47.78125 C 30.375 -44.65625 28.703125 -43.03125 27.328125 -42.90625 Z M 20.125 -0.078125 C 16.21875 0.273438 12.703125 -0.847656 9.578125 -3.453125 C 6.453125 -6.066406 4.710938 -9.328125 4.359375 -13.234375 C 3.992188 -17.242188 5.113281 -20.785156 7.71875 -23.859375 C 10.332031 -26.929688 13.59375 -28.644531 17.5 -29 C 21.507812 -29.363281 25.046875 -28.265625 28.109375 -25.703125 C 31.179688 -23.148438 32.898438 -19.867188 33.265625 -15.859375 C 33.617188 -11.953125 32.519531 -8.4375 29.96875 -5.3125 C 27.414062 -2.1875 24.132812 -0.441406 20.125 -0.078125 Z M 20.125 -0.078125 "/></g></g></g><path stroke-linecap="butt" transform="matrix(3.226575, -0.292617, 0.292617, 3.226575, 45.180942, 259.536158)" fill="none" stroke-linejoin="miter" d="M 39.283506 28.759539 C 37.824704 28.759201 36.597135 28.411797 35.598397 27.717108 C 34.60086 27.022527 33.853358 26.107282 33.359603 24.970498 C 32.864647 23.833605 32.61703 22.625924 32.616425 21.351055 C 32.616561 19.467298 33.067964 17.600252 33.971617 15.75243 C 34.882692 13.902859 36.249326 12.222932 38.072717 10.712756 C 39.903313 9.203234 42.225846 7.996194 45.037696 7.093819 C 47.850417 6.181838 51.158055 5.726362 54.959518 5.726081 C 56.877115 5.726865 58.531428 5.760671 59.919728 5.830886 C 61.309338 5.900009 62.588697 5.970029 63.760425 6.038763 C 64.933245 6.108806 66.121448 6.142714 67.32842 6.143216 C 69.246126 6.142798 70.730559 6.047398 71.781719 5.857014 C 72.831349 5.656806 73.695103 5.557175 74.371889 5.556809 C 75.187853 5.556959 75.739911 5.743828 76.025661 6.117199 C 76.312612 6.490679 76.455947 7.032732 76.455556 7.744558 C 76.454977 9.099222 76.125487 10.382894 75.465558 11.59907 C 74.8065 12.805639 73.8257 13.782062 72.523158 14.528338 C 71.230332 15.274285 69.62381 15.647958 67.706104 15.648375 C 66.42163 15.648109 65.306321 15.504589 64.360177 15.217816 C 63.422439 14.931805 62.497573 14.610642 61.586782 14.254436 C 60.684396 13.898992 59.663472 13.582435 58.52652 13.303781 C 57.390221 13.017922 55.987933 12.87501 54.320965 12.873954 C 52.220418 12.874738 50.415648 13.178375 48.905347 13.785955 C 47.394607 14.385021 46.24064 15.175038 45.442246 16.155897 C 44.643413 17.128241 44.243902 18.182804 44.243713 19.319586 C 44.243322 20.031413 44.439611 20.630326 44.830179 21.116107 C 45.220308 21.593375 45.697385 21.832766 46.261628 21.831879 C 46.514345 22.395958 46.530759 23.082674 46.313489 23.889843 C 46.105497 24.688169 45.688785 25.451827 45.064554 26.180927 C 44.438683 26.901404 43.63617 27.513851 42.655922 28.01696 C 41.68375 28.511116 40.559575 28.759043 39.283506 28.759539 Z M 37.681686 49.238888 C 35.22528 49.238876 33.233469 48.801582 31.70527 47.924494 C 30.17751 47.05592 29.066354 45.932151 28.373112 44.552095 C 27.678231 43.163416 27.330359 41.739621 27.330587 40.282021 C 27.330925 38.823219 27.625569 37.429849 28.215722 36.102019 C 28.798231 34.765022 29.623019 33.68002 30.690086 32.847013 C 31.757915 32.005601 33.003109 31.584631 34.426871 31.584212 C 34.955964 31.58377 35.221158 31.796681 35.221251 32.222838 C 35.220743 33.403175 35.681384 34.35778 36.600771 35.086435 C 37.529764 35.815961 38.763013 36.180829 40.299317 36.180932 C 41.401059 36.180365 42.598903 35.867691 43.892847 35.24291 C 45.194105 34.617583 46.448458 33.641755 47.654922 32.312918 C 48.862039 30.976876 49.890264 29.223886 50.740904 27.052855 C 51.209808 25.847201 51.68274 24.597117 52.159593 23.303807 C 52.637208 22.00209 53.106217 20.781918 53.566512 19.644489 C 53.921841 18.716669 54.395775 18.056263 54.985694 17.665455 C 55.575505 17.275847 56.261527 17.080194 57.042451 17.079587 C 58.214273 17.080533 58.987285 17.340709 59.360176 17.861207 C 59.73383 18.3733 59.776991 19.072127 59.490859 19.957797 C 58.6051 22.769708 57.732184 25.413293 56.873531 27.88626 C 56.022846 30.351474 55.098574 32.760379 54.099517 35.112865 C 52.077524 39.947631 49.668504 43.510015 46.87344 45.802526 C 44.0882 48.093507 41.023045 49.239252 37.681686 49.238888 Z M 84.556808 32.391998 C 84.765123 32.070698 85.099015 31.953279 85.559685 32.039851 C 86.027559 32.127077 86.431163 32.322275 86.770495 32.625444 C 87.108518 32.929706 87.169835 33.29483 86.952155 33.719397 C 86.458225 34.787189 85.811042 35.889509 85.01301 37.026574 C 84.213776 38.16353 83.215942 39.114195 82.018306 39.878459 C 80.829184 40.642286 79.362388 41.023788 77.616608 41.024059 L 76.978573 41.024307 C 75.668841 42.837723 74.097921 44.287261 72.265814 45.372918 C 70.435016 46.457484 68.520157 47.000531 66.523856 46.999873 C 64.146154 46.999736 62.175004 46.20112 60.612809 44.604245 C 59.050176 42.998856 58.269213 40.810605 58.269702 38.041895 C 58.269158 36.045485 58.634071 34.010791 59.363457 31.9353 C 60.092295 29.852496 61.112515 27.934132 62.422806 26.181298 C 63.742483 24.41842 65.287212 23.004038 67.058304 21.937059 C 68.836818 20.868333 70.79436 20.335211 72.929948 20.335183 C 74.387548 20.335412 75.703416 20.630291 76.875039 21.220805 C 78.046333 21.801604 78.98029 22.770078 79.674727 24.123608 C 80.368725 25.468624 80.715369 27.266398 80.716076 29.514637 C 80.716049 31.397194 80.451081 33.224247 79.921172 34.995795 L 80.286854 34.995061 C 81.067669 34.995655 81.813727 34.792129 82.525137 34.383283 C 83.237638 33.975746 83.914061 33.311912 84.556808 32.391998 Z M 69.571139 35.959083 C 70.456092 35.959436 71.236849 35.693683 71.914393 35.164332 C 72.591498 34.626467 73.125144 33.975108 73.516423 33.211565 C 73.9065 32.447913 74.102058 31.693254 74.102005 30.946278 C 74.101398 30.165355 73.872238 29.501718 73.412232 28.953948 C 72.951678 28.398866 72.205734 28.120563 71.17178 28.121225 C 70.321976 28.120427 69.566651 28.372749 68.907221 28.875897 C 68.247353 29.370531 67.730186 30.000382 67.357028 30.764359 C 66.98387 31.528335 66.797595 32.300785 66.797 33.081599 C 66.797607 33.862523 67.009741 34.540355 67.436023 35.11291 C 67.860665 35.676843 68.572334 35.9593 69.571139 35.959083 Z M 89.564928 46.999882 C 87.472895 47.000228 85.936105 46.27127 84.955758 44.813119 C 83.97421 43.354858 83.484677 41.557443 83.484649 39.421856 C 83.484435 37.435161 83.766592 35.338482 84.330901 33.13422 C 84.903725 30.929519 85.76705 28.858912 86.921968 26.923707 C 88.0842 24.987955 89.525301 23.408001 91.244071 22.183736 C 92.972009 20.951828 94.972215 20.335408 97.245888 20.334586 C 98.313682 20.334572 99.138734 20.461454 99.72006 20.712721 C 100.310663 20.955144 100.757624 21.246283 101.06105 21.584937 C 101.365678 21.9237 101.621394 22.227762 101.82951 22.49603 C 102.046031 22.76506 102.332821 22.900027 102.688789 22.899622 C 102.975659 22.900214 103.205805 22.578473 103.37901 21.936798 C 103.560729 21.294685 103.826106 20.34418 104.17274 19.085064 C 104.528541 17.818305 105.084808 16.276749 105.840121 14.462689 C 106.507492 12.830725 107.172548 11.598066 107.831578 10.765585 C 108.491918 9.932012 109.120225 9.371562 109.719992 9.085762 C 110.327072 8.799415 110.900562 8.65651 111.438171 8.655629 C 112.358272 8.655538 112.970644 9.111799 113.274196 10.023101 C 113.577308 10.92589 113.373882 12.141093 112.662716 13.668601 L 106.633941 29.084261 C 105.748541 31.037854 105.418223 32.530894 105.644188 33.56349 C 105.878559 34.596847 106.58242 35.112252 107.753041 35.113089 C 108.673143 35.112998 109.472026 34.874312 110.149691 34.39703 C 110.825825 33.909925 111.433586 33.242285 111.971992 32.391601 C 112.250255 31.966475 112.610338 31.813901 113.053222 31.936391 C 113.50353 32.057132 113.877779 32.295672 114.172367 32.651685 C 114.476671 33.007368 114.541261 33.363103 114.367339 33.718999 C 113.725645 34.961041 113.03999 36.340742 112.310156 37.860504 C 111.581193 39.37066 110.769365 40.820032 109.875873 42.208729 C 108.990457 43.588474 107.979784 44.7341 106.842654 45.645498 C 105.705086 46.548381 104.390473 47.000586 102.896631 46.999492 C 101.195606 47.000189 99.932801 46.253707 99.108216 44.760045 C 98.292037 43.267145 98.027469 41.418703 98.314624 39.213519 L 98.106348 39.214001 C 97.003987 41.383995 95.714782 43.224697 94.238844 44.734906 C 92.762906 46.245115 91.20537 46.999743 89.564928 46.999882 Z M 94.420977 35.95848 C 95.305929 35.958833 96.087778 35.694389 96.764121 35.164929 C 97.441227 34.627065 97.976074 33.975814 98.366151 33.212162 C 98.756228 32.44851 98.951895 31.69265 98.951733 30.946875 C 98.952436 30.16486 98.722075 29.501114 98.26196 28.954546 C 97.801516 28.398262 97.055462 28.12116 96.022818 28.12073 C 95.171705 28.121024 94.416488 28.372145 93.75695 28.876495 C 93.097082 29.371129 92.581224 29.999888 92.208066 30.763864 C 91.834908 31.52784 91.647432 32.300181 91.648038 33.081105 C 91.647335 33.86312 91.860779 34.53986 92.28586 35.112307 C 92.711594 35.677549 93.423372 35.958806 94.420977 35.95848 Z M 137.352015 32.391864 C 137.56033 32.070564 137.894222 31.953145 138.353691 32.039608 C 138.822766 32.126943 139.22637 32.32214 139.564392 32.626402 C 139.903725 32.929572 139.963842 33.294587 139.747362 33.719263 C 139.252231 34.786946 138.606249 35.889374 137.807016 37.026331 C 137.008983 38.163396 136.009948 39.113952 134.812312 39.878216 C 133.623191 40.642042 132.156394 41.023545 130.411815 41.023925 L 129.77378 41.024173 C 128.462847 42.83748 126.891927 44.287018 125.061021 45.372784 C 123.229022 46.457241 121.315364 47.000396 119.319063 46.999739 C 116.94016 46.999493 114.970212 46.200986 113.408017 44.604111 C 111.845383 42.998721 111.064311 40.811672 111.063708 38.041652 C 111.064365 36.045351 111.429278 34.010656 112.157354 31.936258 C 112.887502 29.852362 113.906521 27.933889 115.218013 26.181164 C 116.53638 24.419378 118.082419 23.003904 119.85231 21.936816 C 121.631916 20.869399 123.589567 20.335077 125.725155 20.335049 C 127.182755 20.335277 128.497422 20.630048 129.670246 21.220671 C 130.84154 21.80147 131.774296 22.769835 132.468733 24.123365 C 133.163823 25.469691 133.510576 27.266264 133.510082 29.514394 C 133.511147 31.398261 133.246179 33.225313 132.716379 34.995661 L 133.080752 34.996018 C 133.861675 34.995412 134.608934 34.791995 135.320344 34.383149 C 136.031644 33.975503 136.709268 33.311778 137.352015 32.391864 Z M 122.365146 35.95884 C 123.251299 35.959302 124.031947 35.694749 124.709491 35.165399 C 125.386705 34.626333 125.920243 33.976175 126.310429 33.211322 C 126.701707 32.447778 126.896064 31.69301 126.896011 30.946035 C 126.896605 30.16522 126.666244 29.501474 126.206238 28.953705 C 125.746885 28.398731 124.999631 28.121521 123.966987 28.121091 C 123.115874 28.121385 122.360657 28.372506 121.701227 28.875654 C 121.041359 29.370288 120.525393 30.000248 120.152235 30.764224 C 119.779077 31.528201 119.592802 32.30065 119.592207 33.081465 C 119.592814 33.862389 119.804948 34.54022 120.230029 35.112667 C 120.655872 35.676708 121.367541 35.959166 122.365146 35.95884 Z M 122.365146 35.95884 " stroke="#5b4f47" stroke-width="3.999998" stroke-opacity="1" stroke-miterlimit="4"/><g fill="#f6f1e3" fill-opacity="1"><g transform="translate(155.731201, 402.406667)"><g><path d="M 24.59375 -61.578125 C 19.894531 -61.148438 15.835938 -61.90625 12.421875 -63.84375 C 9.003906 -65.789062 6.328125 -68.523438 4.390625 -72.046875 C 2.460938 -75.578125 1.3125 -79.40625 0.9375 -83.53125 C 0.382812 -89.613281 1.296875 -95.769531 3.671875 -102 C 6.054688 -108.226562 9.984375 -114.046875 15.453125 -119.453125 C 20.921875 -124.867188 28.050781 -129.453125 36.84375 -133.203125 C 45.644531 -136.953125 56.179688 -139.378906 68.453125 -140.484375 C 74.640625 -141.046875 79.984375 -141.414062 84.484375 -141.59375 C 88.984375 -141.769531 93.132812 -141.910156 96.9375 -142.015625 C 100.75 -142.128906 104.601562 -142.363281 108.5 -142.71875 C 114.695312 -143.28125 119.457031 -144.03125 122.78125 -144.96875 C 126.101562 -145.914062 128.851562 -146.488281 131.03125 -146.6875 C 133.675781 -146.925781 135.515625 -146.484375 136.546875 -145.359375 C 137.578125 -144.242188 138.195312 -142.539062 138.40625 -140.25 C 138.800781 -135.875 138.109375 -131.644531 136.328125 -127.5625 C 134.554688 -123.476562 131.6875 -120.035156 127.71875 -117.234375 C 123.757812 -114.441406 118.679688 -112.765625 112.484375 -112.203125 C 108.359375 -111.828125 104.734375 -111.960938 101.609375 -112.609375 C 98.484375 -113.253906 95.40625 -114.015625 92.375 -114.890625 C 89.34375 -115.773438 85.945312 -116.507812 82.1875 -117.09375 C 78.4375 -117.675781 73.863281 -117.722656 68.46875 -117.234375 C 61.707031 -116.617188 55.976562 -115.117188 51.28125 -112.734375 C 46.582031 -110.347656 43.082031 -107.457031 40.78125 -104.0625 C 38.488281 -100.675781 37.507812 -97.148438 37.84375 -93.484375 C 38.050781 -91.179688 38.859375 -89.3125 40.265625 -87.875 C 41.671875 -86.445312 43.289062 -85.816406 45.125 -85.984375 C 46.09375 -84.210938 46.347656 -82.003906 45.890625 -79.359375 C 45.429688 -76.722656 44.304688 -74.132812 42.515625 -71.59375 C 40.722656 -69.0625 38.320312 -66.851562 35.3125 -64.96875 C 32.300781 -63.082031 28.726562 -61.953125 24.59375 -61.578125 Z M 25.421875 4.96875 C 17.515625 5.6875 10.960938 4.863281 5.765625 2.5 C 0.578125 0.144531 -3.332031 -3.164062 -5.96875 -7.4375 C -8.613281 -11.707031 -10.148438 -16.191406 -10.578125 -20.890625 C -11.003906 -25.597656 -10.460938 -30.1875 -8.953125 -34.65625 C -7.453125 -39.132812 -5.101562 -42.878906 -1.90625 -45.890625 C 1.28125 -48.898438 5.171875 -50.613281 9.765625 -51.03125 C 11.492188 -51.1875 12.421875 -50.570312 12.546875 -49.1875 C 12.890625 -45.40625 14.65625 -42.472656 17.84375 -40.390625 C 21.039062 -38.316406 25.101562 -37.503906 30.03125 -37.953125 C 33.59375 -38.273438 37.375 -39.628906 41.375 -42.015625 C 45.382812 -44.398438 49.140625 -47.921875 52.640625 -52.578125 C 56.148438 -57.234375 58.96875 -63.1875 61.09375 -70.4375 C 62.226562 -74.46875 63.382812 -78.644531 64.5625 -82.96875 C 65.738281 -87.289062 66.90625 -91.359375 68.0625 -95.171875 C 68.9375 -98.253906 70.257812 -100.515625 72.03125 -101.953125 C 73.8125 -103.390625 75.960938 -104.222656 78.484375 -104.453125 C 82.273438 -104.796875 84.847656 -104.1875 86.203125 -102.625 C 87.566406 -101.070312 87.914062 -98.816406 87.25 -95.859375 C 85.207031 -86.546875 83.164062 -77.773438 81.125 -69.546875 C 79.09375 -61.328125 76.816406 -53.285156 74.296875 -45.421875 C 69.171875 -29.234375 62.441406 -17.03125 54.109375 -8.8125 C 45.773438 -0.601562 36.210938 3.988281 25.421875 4.96875 Z M 25.421875 4.96875 "/></g></g></g><g fill="#f6f1e3" fill-opacity="1"><g transform="translate(245.894267, 394.229804)"><g><path d="M 81.578125 -54.9375 C 82.171875 -56.019531 83.226562 -56.484375 84.75 -56.328125 C 86.269531 -56.179688 87.617188 -55.671875 88.796875 -54.796875 C 89.972656 -53.921875 90.28125 -52.765625 89.71875 -51.328125 C 88.425781 -47.742188 86.65625 -44 84.40625 -40.09375 C 82.15625 -36.1875 79.21875 -32.820312 75.59375 -30 C 71.976562 -27.1875 67.359375 -25.523438 61.734375 -25.015625 L 59.6875 -24.84375 C 55.976562 -18.613281 51.328125 -13.476562 45.734375 -9.4375 C 40.140625 -5.40625 34.128906 -3.097656 27.703125 -2.515625 C 20.015625 -1.816406 13.410156 -3.816406 7.890625 -8.515625 C 2.378906 -13.222656 -0.78125 -20.050781 -1.59375 -29 C -2.175781 -35.425781 -1.597656 -42.101562 0.140625 -49.03125 C 1.890625 -55.957031 4.628906 -62.453125 8.359375 -68.515625 C 12.097656 -74.578125 16.675781 -79.585938 22.09375 -83.546875 C 27.519531 -87.503906 33.671875 -89.796875 40.546875 -90.421875 C 45.253906 -90.847656 49.585938 -90.285156 53.546875 -88.734375 C 57.503906 -87.191406 60.796875 -84.335938 63.421875 -80.171875 C 66.054688 -76.015625 67.703125 -70.320312 68.359375 -63.09375 C 68.910156 -57.019531 68.582031 -51.035156 67.375 -45.140625 L 68.578125 -45.25 C 71.109375 -45.476562 73.457031 -46.351562 75.625 -47.875 C 77.800781 -49.40625 79.785156 -51.757812 81.578125 -54.9375 Z M 34.28125 -39.03125 C 37.144531 -39.289062 39.585938 -40.378906 41.609375 -42.296875 C 43.628906 -44.210938 45.160156 -46.457031 46.203125 -49.03125 C 47.242188 -51.613281 47.65625 -54.109375 47.4375 -56.515625 C 47.207031 -59.046875 46.265625 -61.132812 44.609375 -62.78125 C 42.953125 -64.425781 40.460938 -65.097656 37.140625 -64.796875 C 34.390625 -64.546875 32.023438 -63.519531 30.046875 -61.71875 C 28.078125 -59.914062 26.597656 -57.722656 25.609375 -55.140625 C 24.628906 -52.566406 24.253906 -50.019531 24.484375 -47.5 C 24.710938 -44.976562 25.597656 -42.863281 27.140625 -41.15625 C 28.679688 -39.445312 31.0625 -38.738281 34.28125 -39.03125 Z M 34.28125 -39.03125 "/></g></g></g><g fill="#f6f1e3" fill-opacity="1"><g transform="translate(327.798099, 386.801968)"><g><path d="M 20.140625 -1.828125 C 13.359375 -1.210938 8.175781 -3.113281 4.59375 -7.53125 C 1.019531 -11.945312 -1.078125 -17.597656 -1.703125 -24.484375 C -2.285156 -30.898438 -1.984375 -37.75 -0.796875 -45.03125 C 0.390625 -52.3125 2.566406 -59.25 5.734375 -65.84375 C 8.898438 -72.4375 13.082031 -77.960938 18.28125 -82.421875 C 23.488281 -86.878906 29.765625 -89.441406 37.109375 -90.109375 C 40.554688 -90.421875 43.257812 -90.257812 45.21875 -89.625 C 47.1875 -89 48.707031 -88.1875 49.78125 -87.1875 C 50.863281 -86.1875 51.785156 -85.285156 52.546875 -84.484375 C 53.304688 -83.691406 54.265625 -83.347656 55.421875 -83.453125 C 56.335938 -83.535156 56.988281 -84.632812 57.375 -86.75 C 57.757812 -88.863281 58.335938 -92.003906 59.109375 -96.171875 C 59.890625 -100.347656 61.21875 -105.46875 63.09375 -111.53125 C 64.800781 -117.007812 66.59375 -121.191406 68.46875 -124.078125 C 70.34375 -126.972656 72.210938 -128.96875 74.078125 -130.0625 C 75.953125 -131.15625 77.75 -131.78125 79.46875 -131.9375 C 82.445312 -132.207031 84.554688 -130.925781 85.796875 -128.09375 C 87.035156 -125.257812 86.734375 -121.269531 84.890625 -116.125 L 69.9375 -64.625 C 67.644531 -58.050781 67.023438 -53.132812 68.078125 -49.875 C 69.128906 -46.625 71.546875 -45.171875 75.328125 -45.515625 C 78.304688 -45.785156 80.8125 -46.789062 82.84375 -48.53125 C 84.882812 -50.28125 86.644531 -52.613281 88.125 -55.53125 C 88.914062 -56.988281 90.046875 -57.578125 91.515625 -57.296875 C 92.984375 -57.023438 94.253906 -56.359375 95.328125 -55.296875 C 96.410156 -54.242188 96.722656 -53.117188 96.265625 -51.921875 C 94.554688 -47.710938 92.742188 -43.0625 90.828125 -37.96875 C 88.921875 -32.882812 86.738281 -27.976562 84.28125 -23.25 C 81.820312 -18.519531 78.890625 -14.523438 75.484375 -11.265625 C 72.085938 -8.015625 67.972656 -6.171875 63.140625 -5.734375 C 57.648438 -5.234375 53.363281 -7.269531 50.28125 -11.84375 C 47.207031 -16.425781 45.800781 -22.3125 46.0625 -29.5 L 45.375 -29.4375 C 42.457031 -22.125 38.835938 -15.8125 34.515625 -10.5 C 30.203125 -5.195312 25.410156 -2.304688 20.140625 -1.828125 Z M 32.5625 -38.875 C 35.425781 -39.132812 37.867188 -40.222656 39.890625 -42.140625 C 41.921875 -44.054688 43.453125 -46.300781 44.484375 -48.875 C 45.523438 -51.457031 45.9375 -53.953125 45.71875 -56.359375 C 45.488281 -58.890625 44.546875 -60.976562 42.890625 -62.625 C 41.234375 -64.269531 38.742188 -64.941406 35.421875 -64.640625 C 32.660156 -64.390625 30.289062 -63.363281 28.3125 -61.5625 C 26.34375 -59.757812 24.867188 -57.566406 23.890625 -54.984375 C 22.910156 -52.410156 22.535156 -49.863281 22.765625 -47.34375 C 22.992188 -44.820312 23.878906 -42.707031 25.421875 -41 C 26.960938 -39.289062 29.34375 -38.582031 32.5625 -38.875 Z M 32.5625 -38.875 "/></g></g></g><g fill="#f6f1e3" fill-opacity="1"><g transform="translate(416.240501, 378.78115)"><g><path d="M 81.578125 -54.9375 C 82.171875 -56.019531 83.226562 -56.484375 84.75 -56.328125 C 86.269531 -56.179688 87.617188 -55.671875 88.796875 -54.796875 C 89.972656 -53.921875 90.28125 -52.765625 89.71875 -51.328125 C 88.425781 -47.742188 86.65625 -44 84.40625 -40.09375 C 82.15625 -36.1875 79.21875 -32.820312 75.59375 -30 C 71.976562 -27.1875 67.359375 -25.523438 61.734375 -25.015625 L 59.6875 -24.84375 C 55.976562 -18.613281 51.328125 -13.476562 45.734375 -9.4375 C 40.140625 -5.40625 34.128906 -3.097656 27.703125 -2.515625 C 20.015625 -1.816406 13.410156 -3.816406 7.890625 -8.515625 C 2.378906 -13.222656 -0.78125 -20.050781 -1.59375 -29 C -2.175781 -35.425781 -1.597656 -42.101562 0.140625 -49.03125 C 1.890625 -55.957031 4.628906 -62.453125 8.359375 -68.515625 C 12.097656 -74.578125 16.675781 -79.585938 22.09375 -83.546875 C 27.519531 -87.503906 33.671875 -89.796875 40.546875 -90.421875 C 45.253906 -90.847656 49.585938 -90.285156 53.546875 -88.734375 C 57.503906 -87.191406 60.796875 -84.335938 63.421875 -80.171875 C 66.054688 -76.015625 67.703125 -70.320312 68.359375 -63.09375 C 68.910156 -57.019531 68.582031 -51.035156 67.375 -45.140625 L 68.578125 -45.25 C 71.109375 -45.476562 73.457031 -46.351562 75.625 -47.875 C 77.800781 -49.40625 79.785156 -51.757812 81.578125 -54.9375 Z M 34.28125 -39.03125 C 37.144531 -39.289062 39.585938 -40.378906 41.609375 -42.296875 C 43.628906 -44.210938 45.160156 -46.457031 46.203125 -49.03125 C 47.242188 -51.613281 47.65625 -54.109375 47.4375 -56.515625 C 47.207031 -59.046875 46.265625 -61.132812 44.609375 -62.78125 C 42.953125 -64.425781 40.460938 -65.097656 37.140625 -64.796875 C 34.390625 -64.546875 32.023438 -63.519531 30.046875 -61.71875 C 28.078125 -59.914062 26.597656 -57.722656 25.609375 -55.140625 C 24.628906 -52.566406 24.253906 -50.019531 24.484375 -47.5 C 24.710938 -44.976562 25.597656 -42.863281 27.140625 -41.15625 C 28.679688 -39.445312 31.0625 -38.738281 34.28125 -39.03125 Z M 34.28125 -39.03125 "/></g></g></g><g clip-path="url(#a3536f4072)"><path fill="#f6f1e3" d="M 285.339844 481.085938 C 247.144531 488.117188 241.445312 493.820312 234.414062 532.015625 C 227.382812 493.820312 221.679688 488.117188 183.484375 481.085938 C 221.679688 474.054688 227.382812 468.355469 234.414062 430.160156 C 241.445312 468.355469 247.144531 474.054688 285.339844 481.085938 Z M 285.339844 481.085938 " fill-opacity="1" fill-rule="nonzero"/></g><g clip-path="url(#02b89f631c)"><path fill="#f6f1e3" d="M 373.183594 598.621094 C 347.640625 603.324219 343.828125 607.136719 339.125 632.683594 C 334.421875 607.136719 330.613281 603.324219 305.066406 598.621094 C 330.613281 593.921875 334.421875 590.109375 339.125 564.5625 C 343.828125 590.109375 347.640625 593.921875 373.183594 598.621094 Z M 373.183594 598.621094 " fill-opacity="1" fill-rule="nonzero"/></g><g clip-path="url(#bec2f41e9a)"><path fill="#f6f1e3" d="M 485.96875 561.046875 C 469.765625 564.03125 467.347656 566.449219 464.363281 582.652344 C 461.382812 566.449219 458.964844 564.03125 442.761719 561.046875 C 458.964844 558.066406 461.382812 555.648438 464.363281 539.445312 C 467.347656 555.648438 469.765625 558.066406 485.96875 561.046875 Z M 485.96875 561.046875 " fill-opacity="1" fill-rule="nonzero"/></g><g clip-path="url(#c6241c652d)"><path fill="#f6f1e3" d="M 622.882812 383.378906 C 606.679688 386.363281 604.261719 388.78125 601.28125 404.984375 C 598.296875 388.78125 595.878906 386.363281 579.675781 383.378906 C 595.878906 380.398438 598.296875 377.980469 601.28125 361.777344 C 604.261719 377.980469 606.679688 380.398438 622.882812 383.378906 Z M 622.882812 383.378906 " fill-opacity="1" fill-rule="nonzero"/></g><g clip-path="url(#c4c13f9011)"><path fill="#f6f1e3" d="M 323.996094 249.738281 C 307.796875 252.71875 305.378906 255.136719 302.394531 271.339844 C 299.410156 255.136719 296.992188 252.71875 280.792969 249.738281 C 296.992188 246.753906 299.410156 244.335938 302.394531 228.132812 C 305.378906 244.335938 307.796875 246.753906 323.996094 249.738281 Z M 323.996094 249.738281 " fill-opacity="1" fill-rule="nonzero"/></g><g clip-path="url(#299ddbfbdf)"><path fill="#f6f1e3" d="M 412.292969 198.882812 C 390.367188 202.917969 387.09375 206.191406 383.058594 228.117188 C 379.019531 206.191406 375.75 202.917969 353.820312 198.882812 C 375.75 194.847656 379.019531 191.574219 383.058594 169.648438 C 387.09375 191.574219 390.367188 194.847656 412.292969 198.882812 Z M 412.292969 198.882812 " fill-opacity="1" fill-rule="nonzero"/></g></svg>